<mxfile host="app.diagrams.net" modified="2021-10-01T03:56:55.108Z" agent="5.0 (Windows NT 10.0; Win64; x64) AppleWebKit/537.36 (KHTML, like Gecko) Chrome/93.0.4577.82 Safari/537.36" etag="aNO-U8nEF4W9yl2mw288" version="15.3.0" type="github">
  <diagram id="slnVbbzJdbbrH4En2uYu" name="Page-1">
    <mxGraphModel dx="1303" dy="1783" grid="1" gridSize="10" guides="0" tooltips="1" connect="1" arrows="1" fold="1" page="1" pageScale="1" pageWidth="850" pageHeight="1100" background="#FFFFFF" math="0" shadow="0">
      <root>
        <mxCell id="0" />
        <mxCell id="1" parent="0" />
        <mxCell id="NULseq0uM478Y7bA-dPA-58" value="" style="whiteSpace=wrap;html=1;rounded=1;fillColor=#F2CC8F;strokeColor=#E07A5F;fontColor=#393C56;" parent="1" vertex="1">
          <mxGeometry x="300" y="-60" width="1050" height="590" as="geometry" />
        </mxCell>
        <mxCell id="NULseq0uM478Y7bA-dPA-47" style="edgeStyle=none;rounded=1;orthogonalLoop=1;jettySize=auto;html=1;exitX=0.5;exitY=1;exitDx=0;exitDy=0;exitPerimeter=0;startArrow=none;startFill=0;endArrow=none;endFill=0;strokeColor=#E07A5F;labelBackgroundColor=#F4F1DE;fontColor=#393C56;" parent="1" source="NULseq0uM478Y7bA-dPA-13" edge="1">
          <mxGeometry relative="1" as="geometry">
            <mxPoint x="174.36781609195396" y="240" as="targetPoint" />
          </mxGeometry>
        </mxCell>
        <mxCell id="7xtBX2tsmSPpo3_qQwMU-17" style="edgeStyle=none;rounded=0;orthogonalLoop=1;jettySize=auto;html=1;exitX=0.5;exitY=0.08;exitDx=0;exitDy=0;exitPerimeter=0;startArrow=none;startFill=0;endArrow=none;endFill=0;fillColor=#fad7ac;strokeColor=#b46504;" parent="1" edge="1">
          <mxGeometry relative="1" as="geometry">
            <mxPoint x="176" y="-130" as="targetPoint" />
            <mxPoint x="175" y="30" as="sourcePoint" />
          </mxGeometry>
        </mxCell>
        <mxCell id="NULseq0uM478Y7bA-dPA-13" value="" style="html=1;outlineConnect=0;fillColor=#4D4D4D;strokeColor=#E07A5F;gradientDirection=north;strokeWidth=2;shape=mxgraph.networks.cloud;fontColor=#393C56;" parent="1" vertex="1">
          <mxGeometry x="80" y="30" width="190" height="100" as="geometry" />
        </mxCell>
        <mxCell id="NULseq0uM478Y7bA-dPA-22" value="" style="whiteSpace=wrap;html=1;rounded=1;" parent="1" vertex="1">
          <mxGeometry x="350" y="-20" width="520" height="520" as="geometry" />
        </mxCell>
        <mxCell id="NULseq0uM478Y7bA-dPA-14" value="" style="ellipse;shape=cloud;whiteSpace=wrap;html=1;direction=east;fillColor=#CCCCCC;strokeColor=#E07A5F;fontColor=#393C56;" parent="1" vertex="1">
          <mxGeometry x="120" y="50" width="120" height="80" as="geometry" />
        </mxCell>
        <mxCell id="NULseq0uM478Y7bA-dPA-26" value="" style="whiteSpace=wrap;html=1;strokeColor=#E07A5F;fillColor=#F2CC8F;rounded=1;fontColor=#393C56;" parent="1" vertex="1">
          <mxGeometry x="540" y="160" width="280" height="250" as="geometry" />
        </mxCell>
        <mxCell id="NULseq0uM478Y7bA-dPA-54" style="edgeStyle=none;rounded=1;orthogonalLoop=1;jettySize=auto;html=1;exitX=0.5;exitY=1;exitDx=0;exitDy=0;startArrow=none;startFill=0;endArrow=none;endFill=0;strokeColor=#E07A5F;labelBackgroundColor=#F4F1DE;fontColor=#393C56;" parent="1" source="NULseq0uM478Y7bA-dPA-15" edge="1">
          <mxGeometry relative="1" as="geometry">
            <mxPoint x="679" y="350" as="targetPoint" />
          </mxGeometry>
        </mxCell>
        <mxCell id="NULseq0uM478Y7bA-dPA-15" value="" style="shape=image;html=1;verticalAlign=top;verticalLabelPosition=bottom;imageAspect=0;aspect=fixed;image=https://cdn3.iconfinder.com/data/icons/prored/Network%20Online.png;labelBackgroundColor=#F4F1DE;fillColor=#F2CC8F;strokeColor=#E07A5F;fontColor=#393C56;" parent="1" vertex="1">
          <mxGeometry x="632" y="227" width="93" height="93" as="geometry" />
        </mxCell>
        <mxCell id="NULseq0uM478Y7bA-dPA-42" style="edgeStyle=none;rounded=1;orthogonalLoop=1;jettySize=auto;html=1;exitX=0.5;exitY=1;exitDx=0;exitDy=0;startArrow=none;startFill=0;endArrow=none;endFill=0;strokeColor=#E07A5F;labelBackgroundColor=#F4F1DE;fontColor=#393C56;" parent="1" source="NULseq0uM478Y7bA-dPA-17" target="NULseq0uM478Y7bA-dPA-24" edge="1">
          <mxGeometry relative="1" as="geometry" />
        </mxCell>
        <mxCell id="NULseq0uM478Y7bA-dPA-45" style="edgeStyle=none;rounded=1;orthogonalLoop=1;jettySize=auto;html=1;exitX=0;exitY=0.5;exitDx=0;exitDy=0;startArrow=none;startFill=0;endArrow=none;endFill=0;strokeColor=#E07A5F;labelBackgroundColor=#F4F1DE;fontColor=#393C56;" parent="1" source="NULseq0uM478Y7bA-dPA-17" edge="1">
          <mxGeometry relative="1" as="geometry">
            <mxPoint x="270" y="105" as="targetPoint" />
            <Array as="points">
              <mxPoint x="310" y="105" />
            </Array>
          </mxGeometry>
        </mxCell>
        <mxCell id="NULseq0uM478Y7bA-dPA-17" value="" style="image;html=1;image=img/lib/clip_art/networking/Firewall-page1_128x128.png;labelBackgroundColor=#F4F1DE;fillColor=#F2CC8F;strokeColor=#E07A5F;fontColor=#393C56;" parent="1" vertex="1">
          <mxGeometry x="364.03" y="50" width="122" height="110" as="geometry" />
        </mxCell>
        <mxCell id="NULseq0uM478Y7bA-dPA-21" value="" style="shape=image;html=1;verticalAlign=top;verticalLabelPosition=bottom;imageAspect=0;aspect=fixed;image=https://cdn3.iconfinder.com/data/icons/prored/Network%20Online.png;labelBackgroundColor=#F4F1DE;fillColor=#F2CC8F;strokeColor=#E07A5F;fontColor=#393C56;" parent="1" vertex="1">
          <mxGeometry x="720" y="227" width="93" height="93" as="geometry" />
        </mxCell>
        <mxCell id="NULseq0uM478Y7bA-dPA-34" style="rounded=1;orthogonalLoop=1;jettySize=auto;html=1;exitX=0.1;exitY=1;exitDx=0;exitDy=0;exitPerimeter=0;entryX=0.538;entryY=0.247;entryDx=0;entryDy=0;entryPerimeter=0;endArrow=none;endFill=0;labelBackgroundColor=#F4F1DE;strokeColor=#E07A5F;fontColor=#393C56;" parent="1" source="NULseq0uM478Y7bA-dPA-3" target="NULseq0uM478Y7bA-dPA-23" edge="1">
          <mxGeometry relative="1" as="geometry" />
        </mxCell>
        <mxCell id="NULseq0uM478Y7bA-dPA-35" style="edgeStyle=none;rounded=1;orthogonalLoop=1;jettySize=auto;html=1;exitX=0.5;exitY=1;exitDx=0;exitDy=0;exitPerimeter=0;entryX=0.516;entryY=0.247;entryDx=0;entryDy=0;entryPerimeter=0;endArrow=none;endFill=0;labelBackgroundColor=#F4F1DE;strokeColor=#E07A5F;fontColor=#393C56;" parent="1" source="NULseq0uM478Y7bA-dPA-3" target="NULseq0uM478Y7bA-dPA-15" edge="1">
          <mxGeometry relative="1" as="geometry" />
        </mxCell>
        <mxCell id="NULseq0uM478Y7bA-dPA-36" style="edgeStyle=none;rounded=1;orthogonalLoop=1;jettySize=auto;html=1;exitX=0.9;exitY=1;exitDx=0;exitDy=0;exitPerimeter=0;entryX=0.538;entryY=0.247;entryDx=0;entryDy=0;entryPerimeter=0;strokeColor=none;labelBackgroundColor=#F4F1DE;fontColor=#393C56;" parent="1" source="NULseq0uM478Y7bA-dPA-3" target="NULseq0uM478Y7bA-dPA-21" edge="1">
          <mxGeometry relative="1" as="geometry" />
        </mxCell>
        <mxCell id="NULseq0uM478Y7bA-dPA-37" style="edgeStyle=none;rounded=1;orthogonalLoop=1;jettySize=auto;html=1;exitX=0.9;exitY=1;exitDx=0;exitDy=0;exitPerimeter=0;strokeColor=#E07A5F;startArrow=none;startFill=0;endArrow=none;endFill=0;labelBackgroundColor=#F4F1DE;fontColor=#393C56;" parent="1" source="NULseq0uM478Y7bA-dPA-3" edge="1">
          <mxGeometry relative="1" as="geometry">
            <mxPoint x="780" y="250" as="targetPoint" />
          </mxGeometry>
        </mxCell>
        <mxCell id="NULseq0uM478Y7bA-dPA-40" style="edgeStyle=none;rounded=1;orthogonalLoop=1;jettySize=auto;html=1;exitX=0;exitY=0.5;exitDx=0;exitDy=0;exitPerimeter=0;entryX=0.492;entryY=0.5;entryDx=0;entryDy=0;entryPerimeter=0;startArrow=none;startFill=0;endArrow=none;endFill=0;strokeColor=#E07A5F;labelBackgroundColor=#F4F1DE;fontColor=#393C56;" parent="1" source="NULseq0uM478Y7bA-dPA-3" target="NULseq0uM478Y7bA-dPA-17" edge="1">
          <mxGeometry relative="1" as="geometry" />
        </mxCell>
        <mxCell id="NULseq0uM478Y7bA-dPA-3" value="" style="fontColor=#393C56;verticalAlign=top;verticalLabelPosition=bottom;labelPosition=center;align=center;html=1;outlineConnect=0;fillColor=#000000;strokeColor=#E07A5F;gradientDirection=north;strokeWidth=2;shape=mxgraph.networks.load_balancer;" parent="1" vertex="1">
          <mxGeometry x="613.5" y="80" width="130" height="50" as="geometry" />
        </mxCell>
        <mxCell id="NULseq0uM478Y7bA-dPA-52" style="edgeStyle=none;rounded=1;orthogonalLoop=1;jettySize=auto;html=1;exitX=0.5;exitY=1;exitDx=0;exitDy=0;startArrow=none;startFill=0;endArrow=none;endFill=0;strokeColor=#E07A5F;labelBackgroundColor=#F4F1DE;fontColor=#393C56;" parent="1" source="NULseq0uM478Y7bA-dPA-23" edge="1">
          <mxGeometry relative="1" as="geometry">
            <mxPoint x="586" y="349" as="targetPoint" />
          </mxGeometry>
        </mxCell>
        <mxCell id="NULseq0uM478Y7bA-dPA-23" value="" style="shape=image;html=1;verticalAlign=top;verticalLabelPosition=bottom;imageAspect=0;aspect=fixed;image=https://cdn3.iconfinder.com/data/icons/prored/Network%20Online.png;labelBackgroundColor=#F4F1DE;fillColor=#F2CC8F;strokeColor=#E07A5F;fontColor=#393C56;" parent="1" vertex="1">
          <mxGeometry x="539" y="227" width="93" height="93" as="geometry" />
        </mxCell>
        <mxCell id="NULseq0uM478Y7bA-dPA-50" style="edgeStyle=orthogonalEdgeStyle;rounded=1;orthogonalLoop=1;jettySize=auto;html=1;startArrow=none;startFill=0;endArrow=none;endFill=0;strokeColor=#E07A5F;labelBackgroundColor=#F4F1DE;fontColor=#393C56;" parent="1" source="NULseq0uM478Y7bA-dPA-24" target="NULseq0uM478Y7bA-dPA-22" edge="1">
          <mxGeometry relative="1" as="geometry">
            <Array as="points">
              <mxPoint x="570" y="390" />
              <mxPoint x="570" y="390" />
            </Array>
          </mxGeometry>
        </mxCell>
        <mxCell id="NULseq0uM478Y7bA-dPA-51" style="rounded=1;orthogonalLoop=1;jettySize=auto;html=1;startArrow=none;startFill=0;endArrow=none;endFill=0;strokeColor=#E07A5F;edgeStyle=orthogonalEdgeStyle;labelBackgroundColor=#F4F1DE;fontColor=#393C56;" parent="1" source="NULseq0uM478Y7bA-dPA-24" edge="1">
          <mxGeometry relative="1" as="geometry">
            <mxPoint x="777" y="316" as="targetPoint" />
            <Array as="points">
              <mxPoint x="440" y="350" />
              <mxPoint x="777" y="350" />
            </Array>
          </mxGeometry>
        </mxCell>
        <mxCell id="NULseq0uM478Y7bA-dPA-24" value="" style="verticalLabelPosition=bottom;sketch=0;aspect=fixed;html=1;verticalAlign=top;strokeColor=#E07A5F;align=center;outlineConnect=0;shape=mxgraph.citrix.proxy_server;fillColor=#F2CC8F;fontColor=#393C56;" parent="1" vertex="1">
          <mxGeometry x="377" y="227" width="96.05" height="113" as="geometry" />
        </mxCell>
        <mxCell id="NULseq0uM478Y7bA-dPA-43" style="edgeStyle=none;rounded=1;orthogonalLoop=1;jettySize=auto;html=1;exitX=0.5;exitY=1;exitDx=0;exitDy=0;entryX=0.5;entryY=0.909;entryDx=0;entryDy=0;entryPerimeter=0;startArrow=none;startFill=0;endArrow=none;endFill=0;strokeColor=#E07A5F;labelBackgroundColor=#F4F1DE;fontColor=#393C56;" parent="1" source="NULseq0uM478Y7bA-dPA-17" target="NULseq0uM478Y7bA-dPA-17" edge="1">
          <mxGeometry relative="1" as="geometry" />
        </mxCell>
        <mxCell id="NULseq0uM478Y7bA-dPA-46" style="edgeStyle=none;rounded=1;orthogonalLoop=1;jettySize=auto;html=1;exitX=0;exitY=0.5;exitDx=0;exitDy=0;startArrow=none;startFill=0;endArrow=none;endFill=0;strokeColor=#E07A5F;labelBackgroundColor=#F4F1DE;fontColor=#393C56;" parent="1" source="NULseq0uM478Y7bA-dPA-17" target="NULseq0uM478Y7bA-dPA-17" edge="1">
          <mxGeometry relative="1" as="geometry">
            <Array as="points">
              <mxPoint x="380" y="105" />
            </Array>
          </mxGeometry>
        </mxCell>
        <mxCell id="NULseq0uM478Y7bA-dPA-53" style="edgeStyle=none;rounded=1;orthogonalLoop=1;jettySize=auto;html=1;exitX=0.5;exitY=1;exitDx=0;exitDy=0;entryX=0.505;entryY=0.892;entryDx=0;entryDy=0;entryPerimeter=0;startArrow=none;startFill=0;endArrow=none;endFill=0;strokeColor=#E07A5F;labelBackgroundColor=#F4F1DE;fontColor=#393C56;" parent="1" source="NULseq0uM478Y7bA-dPA-23" target="NULseq0uM478Y7bA-dPA-23" edge="1">
          <mxGeometry relative="1" as="geometry" />
        </mxCell>
        <mxCell id="NULseq0uM478Y7bA-dPA-55" style="edgeStyle=none;rounded=1;orthogonalLoop=1;jettySize=auto;html=1;exitX=0.5;exitY=1;exitDx=0;exitDy=0;startArrow=none;startFill=0;endArrow=none;endFill=0;strokeColor=#E07A5F;labelBackgroundColor=#F4F1DE;fontColor=#393C56;" parent="1" source="NULseq0uM478Y7bA-dPA-15" target="NULseq0uM478Y7bA-dPA-15" edge="1">
          <mxGeometry relative="1" as="geometry" />
        </mxCell>
        <mxCell id="NULseq0uM478Y7bA-dPA-56" style="edgeStyle=none;rounded=1;orthogonalLoop=1;jettySize=auto;html=1;exitX=0.5;exitY=1;exitDx=0;exitDy=0;startArrow=none;startFill=0;endArrow=none;endFill=0;strokeColor=#E07A5F;labelBackgroundColor=#F4F1DE;fontColor=#393C56;" parent="1" source="NULseq0uM478Y7bA-dPA-15" target="NULseq0uM478Y7bA-dPA-15" edge="1">
          <mxGeometry relative="1" as="geometry" />
        </mxCell>
        <mxCell id="NULseq0uM478Y7bA-dPA-57" style="edgeStyle=none;rounded=1;orthogonalLoop=1;jettySize=auto;html=1;exitX=0.5;exitY=1;exitDx=0;exitDy=0;startArrow=none;startFill=0;endArrow=none;endFill=0;strokeColor=#E07A5F;labelBackgroundColor=#F4F1DE;fontColor=#393C56;" parent="1" source="NULseq0uM478Y7bA-dPA-15" target="NULseq0uM478Y7bA-dPA-15" edge="1">
          <mxGeometry relative="1" as="geometry">
            <Array as="points">
              <mxPoint x="679" y="300" />
            </Array>
          </mxGeometry>
        </mxCell>
        <mxCell id="NULseq0uM478Y7bA-dPA-59" value="RedTeam Load Balancer&lt;br&gt;13.82.97.95" style="text;html=1;strokeColor=none;fillColor=none;align=center;verticalAlign=middle;whiteSpace=wrap;rounded=0;fontColor=#393C56;" parent="1" vertex="1">
          <mxGeometry x="590" y="50" width="170" height="20" as="geometry" />
        </mxCell>
        <mxCell id="NULseq0uM478Y7bA-dPA-60" value="&lt;b&gt;RedTeam Security Group&lt;/b&gt;" style="text;html=1;strokeColor=none;fillColor=none;align=center;verticalAlign=middle;whiteSpace=wrap;rounded=0;fontColor=#393C56;" parent="1" vertex="1">
          <mxGeometry x="377" y="20" width="113" height="20" as="geometry" />
        </mxCell>
        <mxCell id="NULseq0uM478Y7bA-dPA-61" value="Internet" style="text;html=1;strokeColor=none;fillColor=none;align=center;verticalAlign=middle;whiteSpace=wrap;rounded=0;fontColor=#393C56;" parent="1" vertex="1">
          <mxGeometry x="140" y="80" width="70" height="20" as="geometry" />
        </mxCell>
        <mxCell id="NULseq0uM478Y7bA-dPA-62" value="Web-1&lt;br&gt;10.0.0.5" style="text;html=1;strokeColor=none;fillColor=none;align=center;verticalAlign=middle;whiteSpace=wrap;rounded=0;fontColor=#393C56;" parent="1" vertex="1">
          <mxGeometry x="562" y="357.5" width="70" height="32.5" as="geometry" />
        </mxCell>
        <mxCell id="NULseq0uM478Y7bA-dPA-63" value="Web-2&lt;br&gt;10.0.0.6" style="text;html=1;strokeColor=none;fillColor=none;align=center;verticalAlign=middle;whiteSpace=wrap;rounded=0;fontColor=#393C56;" parent="1" vertex="1">
          <mxGeometry x="640" y="357.5" width="70" height="32.5" as="geometry" />
        </mxCell>
        <mxCell id="NULseq0uM478Y7bA-dPA-64" value="Web-3&lt;br&gt;10.0.0.7" style="text;html=1;strokeColor=none;fillColor=none;align=center;verticalAlign=middle;whiteSpace=wrap;rounded=0;fontColor=#393C56;" parent="1" vertex="1">
          <mxGeometry x="731.5" y="357.5" width="70" height="32.5" as="geometry" />
        </mxCell>
        <mxCell id="NULseq0uM478Y7bA-dPA-65" value="&lt;b&gt;Load Balancer Backend Pool&lt;/b&gt;" style="text;html=1;strokeColor=none;fillColor=none;align=center;verticalAlign=middle;whiteSpace=wrap;rounded=0;fontColor=#393C56;" parent="1" vertex="1">
          <mxGeometry x="580" y="390" width="190" height="20" as="geometry" />
        </mxCell>
        <mxCell id="NULseq0uM478Y7bA-dPA-66" value="Jump-Box VM&lt;br&gt;Ansible&lt;br&gt;52.142..1.81&lt;br&gt;10.0.0.4" style="text;html=1;strokeColor=none;fillColor=none;align=center;verticalAlign=middle;whiteSpace=wrap;rounded=0;sketch=0;fontColor=#393C56;" parent="1" vertex="1">
          <mxGeometry x="377" y="347.5" width="90" height="70" as="geometry" />
        </mxCell>
        <mxCell id="NULseq0uM478Y7bA-dPA-67" value="Workstation" style="text;html=1;strokeColor=none;fillColor=none;align=center;verticalAlign=middle;whiteSpace=wrap;rounded=0;sketch=0;fontColor=#393C56;rotation=0;" parent="1" vertex="1">
          <mxGeometry x="139" y="347.5" width="70" height="20" as="geometry" />
        </mxCell>
        <mxCell id="NULseq0uM478Y7bA-dPA-68" value="HTTP" style="text;html=1;strokeColor=none;fillColor=none;align=center;verticalAlign=middle;whiteSpace=wrap;rounded=0;sketch=0;fontColor=#393C56;" parent="1" vertex="1">
          <mxGeometry x="486.03" y="90" width="40" height="20" as="geometry" />
        </mxCell>
        <mxCell id="NULseq0uM478Y7bA-dPA-69" value="SSH port 22&lt;br&gt;HTTP port 80" style="text;html=1;strokeColor=none;fillColor=none;align=center;verticalAlign=middle;whiteSpace=wrap;rounded=0;sketch=0;fontColor=#393C56;" parent="1" vertex="1">
          <mxGeometry x="179" y="150" width="81" height="40" as="geometry" />
        </mxCell>
        <mxCell id="NULseq0uM478Y7bA-dPA-70" value="SSH" style="text;html=1;strokeColor=none;fillColor=none;align=center;verticalAlign=middle;whiteSpace=wrap;rounded=0;sketch=0;fontColor=#393C56;" parent="1" vertex="1">
          <mxGeometry x="433.05" y="180" width="40" height="20" as="geometry" />
        </mxCell>
        <mxCell id="NULseq0uM478Y7bA-dPA-71" value="SSH" style="text;html=1;strokeColor=none;fillColor=none;align=center;verticalAlign=middle;whiteSpace=wrap;rounded=0;sketch=0;fontColor=#393C56;" parent="1" vertex="1">
          <mxGeometry x="486.03000000000003" y="320" width="40" height="20" as="geometry" />
        </mxCell>
        <mxCell id="NULseq0uM478Y7bA-dPA-76" value="Container" style="text;html=1;strokeColor=none;fillColor=none;align=center;verticalAlign=middle;whiteSpace=wrap;rounded=0;sketch=0;fontColor=#393C56;" parent="1" vertex="1">
          <mxGeometry x="703.5" y="320" width="40" height="20" as="geometry" />
        </mxCell>
        <mxCell id="NULseq0uM478Y7bA-dPA-77" value="DVWA" style="text;html=1;strokeColor=none;fillColor=none;align=center;verticalAlign=middle;whiteSpace=wrap;rounded=0;sketch=0;fontColor=#393C56;" parent="1" vertex="1">
          <mxGeometry x="600" y="320" width="40" height="20" as="geometry" />
        </mxCell>
        <mxCell id="NULseq0uM478Y7bA-dPA-78" value="&lt;b&gt;RedTeam Virtual Subnet: 10.0.0.0/24&lt;/b&gt;" style="text;html=1;strokeColor=none;fillColor=none;align=center;verticalAlign=middle;whiteSpace=wrap;rounded=0;sketch=0;fontColor=#393C56;" parent="1" vertex="1">
          <mxGeometry x="510" y="-20" width="210" height="20" as="geometry" />
        </mxCell>
        <mxCell id="NULseq0uM478Y7bA-dPA-79" value="&lt;b&gt;RedTeam Virtual Network: 10.0.0.0/16&lt;/b&gt;" style="text;html=1;strokeColor=none;fillColor=none;align=center;verticalAlign=middle;whiteSpace=wrap;rounded=0;sketch=0;fontColor=#393C56;" parent="1" vertex="1">
          <mxGeometry x="513.5" y="-40" width="216.5" height="20" as="geometry" />
        </mxCell>
        <mxCell id="NULseq0uM478Y7bA-dPA-80" value="&lt;b&gt;&lt;font style=&quot;font-size: 20px&quot;&gt;RedTeam Resource Group&lt;/font&gt;&lt;/b&gt;" style="text;html=1;strokeColor=none;fillColor=none;align=center;verticalAlign=middle;whiteSpace=wrap;rounded=0;sketch=0;fontColor=#393C56;" parent="1" vertex="1">
          <mxGeometry x="660" y="-80" width="260" height="20" as="geometry" />
        </mxCell>
        <mxCell id="7xtBX2tsmSPpo3_qQwMU-9" value="" style="whiteSpace=wrap;html=1;rounded=1;" parent="1" vertex="1">
          <mxGeometry x="940" y="-20" width="350" height="340" as="geometry" />
        </mxCell>
        <mxCell id="7xtBX2tsmSPpo3_qQwMU-4" value="" style="shape=image;html=1;verticalAlign=top;verticalLabelPosition=bottom;imageAspect=0;aspect=fixed;image=https://cdn3.iconfinder.com/data/icons/prored/Network%20Online.png;labelBackgroundColor=#F4F1DE;fillColor=#F2CC8F;strokeColor=#E07A5F;fontColor=#393C56;" parent="1" vertex="1">
          <mxGeometry x="1050" y="180" width="120" height="120" as="geometry" />
        </mxCell>
        <mxCell id="7xtBX2tsmSPpo3_qQwMU-18" style="edgeStyle=none;rounded=0;orthogonalLoop=1;jettySize=auto;html=1;exitX=0.5;exitY=0;exitDx=0;exitDy=0;startArrow=none;startFill=0;endArrow=none;endFill=0;fillColor=#fad7ac;strokeColor=#b46504;" parent="1" edge="1">
          <mxGeometry relative="1" as="geometry">
            <mxPoint x="1118" y="-131" as="targetPoint" />
            <mxPoint x="1119" y="39" as="sourcePoint" />
          </mxGeometry>
        </mxCell>
        <mxCell id="7xtBX2tsmSPpo3_qQwMU-12" value="" style="image;html=1;image=img/lib/clip_art/networking/Firewall-page1_128x128.png;labelBackgroundColor=#F4F1DE;fillColor=#F2CC8F;strokeColor=#E07A5F;fontColor=#393C56;" parent="1" vertex="1">
          <mxGeometry x="1060" y="20" width="122" height="100" as="geometry" />
        </mxCell>
        <mxCell id="7xtBX2tsmSPpo3_qQwMU-16" value="" style="outlineConnect=0;dashed=0;verticalLabelPosition=bottom;verticalAlign=top;align=center;html=1;shape=mxgraph.aws3.vpc_peering;fillColor=#F58536;gradientColor=none;rounded=1;" parent="1" vertex="1">
          <mxGeometry x="840" y="50" width="130" height="130" as="geometry" />
        </mxCell>
        <mxCell id="7xtBX2tsmSPpo3_qQwMU-20" value="" style="endArrow=none;html=1;fillColor=#fad7ac;strokeColor=#b46504;startArrow=none;" parent="1" edge="1">
          <mxGeometry width="50" height="50" relative="1" as="geometry">
            <mxPoint x="1060" y="-130" as="sourcePoint" />
            <mxPoint x="1117" y="-130" as="targetPoint" />
          </mxGeometry>
        </mxCell>
        <mxCell id="7xtBX2tsmSPpo3_qQwMU-21" value="" style="endArrow=none;html=1;fillColor=#fad7ac;strokeColor=#b46504;startArrow=none;exitX=1;exitY=0.5;exitDx=0;exitDy=0;" parent="1" edge="1" source="n-GNuyj7heYwSk972vqd-17">
          <mxGeometry width="50" height="50" relative="1" as="geometry">
            <mxPoint x="775" y="349" as="sourcePoint" />
            <mxPoint x="950" y="349" as="targetPoint" />
          </mxGeometry>
        </mxCell>
        <mxCell id="7xtBX2tsmSPpo3_qQwMU-23" value="" style="endArrow=none;html=1;fillColor=#fad7ac;strokeColor=#b46504;" parent="1" edge="1">
          <mxGeometry width="50" height="50" relative="1" as="geometry">
            <mxPoint x="950" y="450" as="sourcePoint" />
            <mxPoint x="950" y="280" as="targetPoint" />
            <Array as="points" />
          </mxGeometry>
        </mxCell>
        <mxCell id="n-GNuyj7heYwSk972vqd-1" value="" style="endArrow=none;html=1;fillColor=#fad7ac;strokeColor=#b46504;" edge="1" parent="1">
          <mxGeometry width="50" height="50" relative="1" as="geometry">
            <mxPoint x="410" y="450" as="sourcePoint" />
            <mxPoint x="410" y="330" as="targetPoint" />
          </mxGeometry>
        </mxCell>
        <mxCell id="n-GNuyj7heYwSk972vqd-2" value="" style="endArrow=none;html=1;fillColor=#fad7ac;strokeColor=#b46504;startArrow=none;" edge="1" parent="1" source="n-GNuyj7heYwSk972vqd-38">
          <mxGeometry width="50" height="50" relative="1" as="geometry">
            <mxPoint x="410" y="450" as="sourcePoint" />
            <mxPoint x="950" y="450" as="targetPoint" />
          </mxGeometry>
        </mxCell>
        <mxCell id="n-GNuyj7heYwSk972vqd-8" value="ELK security Group" style="text;strokeColor=none;fillColor=none;align=left;verticalAlign=top;spacingLeft=4;spacingRight=4;overflow=hidden;rotatable=0;points=[[0,0.5],[1,0.5]];portConstraint=eastwest;rounded=1;fontStyle=1" vertex="1" parent="1">
          <mxGeometry x="1160" y="60" width="130" height="40" as="geometry" />
        </mxCell>
        <mxCell id="n-GNuyj7heYwSk972vqd-9" value="ELK SERVER&#xa;ELK CONTAINER&#xa;13.83.49.250&#xa;10.1.0.4&#xa;" style="text;strokeColor=none;fillColor=none;align=left;verticalAlign=top;spacingLeft=4;spacingRight=4;overflow=hidden;rotatable=0;points=[[0,0.5],[1,0.5]];portConstraint=eastwest;rounded=1;fontStyle=1" vertex="1" parent="1">
          <mxGeometry x="970" y="170" width="130" height="80" as="geometry" />
        </mxCell>
        <mxCell id="n-GNuyj7heYwSk972vqd-10" value="ELK Virtual Subnet: 10.1.0.4/24" style="text;strokeColor=none;fillColor=none;align=left;verticalAlign=top;spacingLeft=4;spacingRight=4;overflow=hidden;rotatable=0;points=[[0,0.5],[1,0.5]];portConstraint=eastwest;rounded=1;fontStyle=1" vertex="1" parent="1">
          <mxGeometry x="1060" y="-20" width="200" height="40" as="geometry" />
        </mxCell>
        <mxCell id="n-GNuyj7heYwSk972vqd-11" value="ELK Virtual Network: 10.1.0.4/16" style="text;strokeColor=none;fillColor=none;align=left;verticalAlign=top;spacingLeft=4;spacingRight=4;overflow=hidden;rotatable=0;points=[[0,0.5],[1,0.5]];portConstraint=eastwest;rounded=1;fontStyle=1" vertex="1" parent="1">
          <mxGeometry x="1060" y="-40" width="200" height="40" as="geometry" />
        </mxCell>
        <mxCell id="n-GNuyj7heYwSk972vqd-12" value="" style="endArrow=none;html=1;fillColor=#fad7ac;strokeColor=#b46504;" edge="1" parent="1">
          <mxGeometry width="50" height="50" relative="1" as="geometry">
            <mxPoint x="1121" y="109" as="sourcePoint" />
            <mxPoint x="1121" y="200" as="targetPoint" />
            <Array as="points" />
          </mxGeometry>
        </mxCell>
        <mxCell id="n-GNuyj7heYwSk972vqd-19" value="" style="endArrow=none;html=1;fillColor=#fad7ac;strokeColor=#b46504;startArrow=none;" edge="1" parent="1" source="n-GNuyj7heYwSk972vqd-17">
          <mxGeometry width="50" height="50" relative="1" as="geometry">
            <mxPoint x="775" y="349" as="sourcePoint" />
            <mxPoint x="930" y="350" as="targetPoint" />
          </mxGeometry>
        </mxCell>
        <mxCell id="n-GNuyj7heYwSk972vqd-16" value="TCP 5601" style="text;strokeColor=none;fillColor=none;align=left;verticalAlign=top;spacingLeft=4;spacingRight=4;overflow=hidden;rotatable=0;points=[[0,0.5],[1,0.5]];portConstraint=eastwest;rounded=1;" vertex="1" parent="1">
          <mxGeometry x="1000" y="-143" width="70" height="26" as="geometry" />
        </mxCell>
        <mxCell id="n-GNuyj7heYwSk972vqd-22" value="" style="endArrow=none;html=1;fillColor=#fad7ac;strokeColor=#b46504;" edge="1" parent="1">
          <mxGeometry width="50" height="50" relative="1" as="geometry">
            <mxPoint x="177" y="-130" as="sourcePoint" />
            <mxPoint x="1000" y="-128.08158508158522" as="targetPoint" />
          </mxGeometry>
        </mxCell>
        <mxCell id="n-GNuyj7heYwSk972vqd-30" value="" style="image;html=1;image=img/lib/clip_art/computers/Workstation_128x128.png;rounded=1;" vertex="1" parent="1">
          <mxGeometry x="120" y="230" width="130" height="120" as="geometry" />
        </mxCell>
        <mxCell id="n-GNuyj7heYwSk972vqd-32" value="" style="whiteSpace=wrap;html=1;rounded=1;" vertex="1" parent="1">
          <mxGeometry x="960" y="330" width="340" height="180" as="geometry" />
        </mxCell>
        <mxCell id="n-GNuyj7heYwSk972vqd-33" value="         REDTEAM SG&#xa;1. Allow my home IP to connect on port 80 (TCP)&#xa;2. Allow my home IP to SSH into Jumpbox (TCP)&#xa;3. Allow Jumpbox IP to SSH into virtual network (TCP)&#xa;4. Allow Vnet inbound on any port (Default)&#xa;5. Allow Load Balancer on any port (Default)&#xa;         ELK SERVER SG&#xa;1. Allow my home IP to connect to Vnet on port 5601 (tcp)&#xa;2. Allow SSH on any port (TCP)&#xa;3. Deny all inbound on any port (Default)" style="text;strokeColor=none;fillColor=none;align=left;verticalAlign=top;spacingLeft=4;spacingRight=4;overflow=hidden;rotatable=0;points=[[0,0.5],[1,0.5]];portConstraint=eastwest;rounded=1;fontSize=13;" vertex="1" parent="1">
          <mxGeometry x="960" y="330" width="340" height="180" as="geometry" />
        </mxCell>
        <mxCell id="n-GNuyj7heYwSk972vqd-17" value="SSH" style="text;html=1;strokeColor=none;fillColor=none;align=center;verticalAlign=middle;whiteSpace=wrap;rounded=0;sketch=0;fontColor=#393C56;" vertex="1" parent="1">
          <mxGeometry x="890" y="340" width="40" height="20" as="geometry" />
        </mxCell>
        <mxCell id="n-GNuyj7heYwSk972vqd-34" value="" style="endArrow=none;html=1;fillColor=#fad7ac;strokeColor=#b46504;" edge="1" parent="1" target="n-GNuyj7heYwSk972vqd-17">
          <mxGeometry width="50" height="50" relative="1" as="geometry">
            <mxPoint x="775" y="349" as="sourcePoint" />
            <mxPoint x="930" y="350" as="targetPoint" />
          </mxGeometry>
        </mxCell>
        <mxCell id="n-GNuyj7heYwSk972vqd-36" value="" style="endArrow=none;html=1;fontSize=13;fillColor=#fad7ac;strokeColor=#b46504;entryX=0.029;entryY=0.882;entryDx=0;entryDy=0;entryPerimeter=0;" edge="1" parent="1" target="7xtBX2tsmSPpo3_qQwMU-9">
          <mxGeometry width="50" height="50" relative="1" as="geometry">
            <mxPoint x="1100" y="280" as="sourcePoint" />
            <mxPoint x="990" y="280" as="targetPoint" />
            <Array as="points" />
          </mxGeometry>
        </mxCell>
        <mxCell id="n-GNuyj7heYwSk972vqd-37" value="&lt;b&gt;SECURITY RULES&lt;/b&gt;" style="text;html=1;strokeColor=none;fillColor=none;align=center;verticalAlign=middle;whiteSpace=wrap;rounded=0;sketch=0;fontColor=#393C56;" vertex="1" parent="1">
          <mxGeometry x="1050" y="510" width="190" height="20" as="geometry" />
        </mxCell>
        <mxCell id="n-GNuyj7heYwSk972vqd-38" value="SSH" style="text;html=1;strokeColor=none;fillColor=none;align=center;verticalAlign=middle;whiteSpace=wrap;rounded=0;sketch=0;fontColor=#393C56;" vertex="1" parent="1">
          <mxGeometry x="640" y="440" width="40" height="20" as="geometry" />
        </mxCell>
        <mxCell id="n-GNuyj7heYwSk972vqd-39" value="" style="endArrow=none;html=1;fillColor=#fad7ac;strokeColor=#b46504;" edge="1" parent="1" target="n-GNuyj7heYwSk972vqd-38">
          <mxGeometry width="50" height="50" relative="1" as="geometry">
            <mxPoint x="410" y="450" as="sourcePoint" />
            <mxPoint x="990" y="450" as="targetPoint" />
          </mxGeometry>
        </mxCell>
        <mxCell id="n-GNuyj7heYwSk972vqd-40" value="Peering" style="text;strokeColor=none;fillColor=none;align=left;verticalAlign=top;spacingLeft=4;spacingRight=4;overflow=hidden;rotatable=0;points=[[0,0.5],[1,0.5]];portConstraint=eastwest;rounded=1;fontStyle=1" vertex="1" parent="1">
          <mxGeometry x="880" y="190" width="60" height="30" as="geometry" />
        </mxCell>
      </root>
    </mxGraphModel>
  </diagram>
</mxfile>
